<svg viewBox="0 0 44 44" xmlns="http://www.w3.org/2000/svg" fill-rule="evenodd" clip-rule="evenodd" stroke-linejoin="round" stroke-miterlimit="2"><path d="M38.042 11A5.044 5.044 0 0033 5.958H11A5.044 5.044 0 005.958 11v22A5.044 5.044 0 0011 38.042h22A5.044 5.044 0 0038.042 33V11zm-24.75 24.292v-4.584H8.708V33A2.293 2.293 0 0011 35.292h2.292zm2.75-11.917v11.917h11.916V23.375H16.042zm14.666 11.917H33A2.293 2.293 0 0035.292 33v-2.292h-4.584v4.584zm0-11.917v4.583h4.584v-4.583h-4.584zm-17.416 0H8.708v4.583h4.584v-4.583zm-4.584-7.333v4.583h4.584v-4.583H8.708zm7.334-7.334v11.917h11.916V8.708H16.042zm19.25 11.917v-4.583h-4.584v4.583h4.584zM30.708 8.708v4.584h4.584V11A2.293 2.293 0 0033 8.708h-2.292zm-22 4.584h4.584V8.708H11A2.293 2.293 0 008.708 11v2.292z"/></svg>